<!DOCTYPE svg PUBLIC "-//W3C//DTD SVG 1.1//EN" "http://www.w3.org/Graphics/SVG/1.1/DTD/svg11.dtd">
<!-- Uploaded to: SVG Repo, www.svgrepo.com, Transformed by: SVG Repo Mixer Tools -->
<svg fill="#2b2d50" height="800px" width="800px" version="1.1" id="Layer_1" xmlns="http://www.w3.org/2000/svg" xmlns:xlink="http://www.w3.org/1999/xlink" viewBox="-51.2 -51.2 614.40 614.40" xml:space="preserve" stroke="#2b2d50">
<g id="SVGRepo_bgCarrier" stroke-width="0">
<path transform="translate(-51.2, -51.2), scale(19.2)" d="M16,28.85474893124774C17.858672306455098,28.49578802435574,19.57908919817515,27.79487994410902,21.278104573132886,26.960097079456737C22.967384748111474,26.1300974429296,24.639562495308603,25.281313298731124,25.974148058169288,23.95411765316311C27.391485926971914,22.544627920828987,29.239139705487116,21.024541475418786,29.25663928536531,19.025741409228733C29.274982378714185,16.93059532829061,26.76532415201045,15.677309832810682,26.063897195825277,13.702981138119553C25.464533504266278,12.01593315063311,26.544490131051734,9.878681672863774,25.492301962547465,8.43014178563218C24.4467626353464,6.990755310423129,22.101682525409643,7.353334132015186,20.67735645988604,6.2873692316508C18.834595077252168,4.908247553559101,18.156038856986402,2.1318637380936085,16.000000000000004,1.3261078423820436C13.860380520213226,0.5264882043448876,11.251016347094364,0.887779412094365,9.26952748285931,2.024029809115282C7.296836748090192,3.155235071500748,6.156678028014196,5.3590821266262125,5.296208628815082,7.464011221330926C4.532784968589431,9.33154151989891,4.547595641419577,11.385888857105812,4.618272065300506,13.40219487162076C4.678176436699872,15.111188305580775,5.537073249493496,16.65170346145412,5.677996836248866,18.355929864760675C5.8449204195455495,20.374581139103938,4.82933506169327,22.45166987821627,5.523916810172308,24.354397563605872C6.260517721316296,26.37223196507974,7.665766325841611,28.35998869631487,9.639437128289067,29.20784489735133C11.615250819831648,30.056621647957243,13.888605545016015,29.26251745813417,16,28.85474893124774" fill="#7ed0ec" strokewidth="0"/>
</g>
<g id="SVGRepo_tracerCarrier" stroke-linecap="round" stroke-linejoin="round" stroke="#ffffff" stroke-width="17.408"> <g> <g> <g> <path d="M501.438,135.843h-8.449V99.257c0-5.832-4.728-10.561-10.562-10.561H212.17l-22.685-22.221 c-8.433-8.268-19.585-12.822-31.399-12.822H44.865C20.127,53.652,0,73.779,0,98.518v296.662 c0,34.831,28.338,63.168,63.168,63.168h385.653c34.837,0,63.179-28.336,63.179-63.168V146.403 C512,140.571,507.272,135.843,501.438,135.843z M471.866,109.818v26.025H260.301l-26.567-26.025H471.866z M448.821,437.225 H63.168c-23.184,0-42.045-18.861-42.045-42.045V98.518c0-13.092,10.651-23.742,23.742-23.742h113.219 c6.251,0,12.151,2.408,16.615,6.785l55.417,54.284h-40.829c-5.833,0-10.561,4.729-10.561,10.562 c0,5.832,4.728,10.561,10.561,10.561l301.589-0.002v238.214h0C490.877,418.363,472.011,437.225,448.821,437.225z"/> <path d="M290.083,266.22c0.726-2.706,0.345-5.588-1.055-8.014l-21.123-36.587c-1.4-2.426-3.707-4.196-6.413-4.921 c-2.707-0.727-5.589-0.346-8.014,1.055l-12.25,7.072c-6.183-4.824-13.022-8.786-20.255-11.73v-14.109 c0-5.832-4.728-10.561-10.562-10.561h-42.246c-5.833,0-10.561,4.729-10.561,10.561v14.109 c-7.234,2.943-14.073,6.905-20.255,11.73l-12.25-7.072c-2.426-1.4-5.307-1.781-8.014-1.055c-2.706,0.726-5.012,2.495-6.413,4.921 l-21.123,36.587c-1.4,2.426-1.781,5.308-1.055,8.014c0.726,2.707,2.495,5.013,4.922,6.413l12.208,7.048 c-0.549,3.894-0.826,7.812-0.826,11.719s0.277,7.826,0.826,11.72l-12.208,7.048c-2.426,1.4-4.196,3.707-4.922,6.413 c-0.726,2.706-0.345,5.588,1.055,8.014l21.123,36.587c1.4,2.426,3.707,4.196,6.413,4.921c2.707,0.726,5.589,0.345,8.014-1.055 l12.25-7.073c6.182,4.825,13.021,8.786,20.255,11.73v14.109c0,5.832,4.728,10.562,10.561,10.562h42.246 c5.833,0,10.562-4.729,10.562-10.562v-14.109c7.234-2.943,14.073-6.905,20.255-11.73l12.25,7.073 c2.426,1.401,5.308,1.783,8.014,1.055c2.706-0.726,5.013-2.495,6.413-4.921l21.123-36.587c1.4-2.426,1.781-5.308,1.055-8.014 c-0.726-2.707-2.495-5.012-4.921-6.413l-12.208-7.049c0.549-3.894,0.826-7.812,0.826-11.719c0-3.907-0.277-7.824-0.826-11.718 l12.208-7.049C287.588,271.233,289.358,268.926,290.083,266.22z M250.921,276.722c1.152,4.838,1.736,9.777,1.736,14.677 c0,4.903-0.584,9.84-1.736,14.678c-1.081,4.544,0.948,9.258,4.993,11.593l9.54,5.508l-10.562,18.294l-9.578-5.53 c-4.046-2.336-9.144-1.736-12.538,1.473c-7.199,6.808-15.979,11.893-25.389,14.704c-4.473,1.337-7.539,5.451-7.539,10.12v11.012 h-21.123v-11.012c0-4.669-3.065-8.783-7.539-10.12c-9.41-2.81-18.19-7.896-25.389-14.704c-3.393-3.21-8.494-3.81-12.538-1.473 l-9.578,5.53l-10.562-18.294l9.54-5.508c4.046-2.335,6.076-7.051,4.993-11.594c-1.152-4.837-1.736-9.776-1.736-14.677 c0-4.902,0.584-9.839,1.736-14.676c1.083-4.544-0.947-9.259-4.993-11.594l-9.54-5.508l10.562-18.294l9.578,5.53 c4.045,2.336,9.144,1.736,12.538-1.473c7.2-6.809,15.98-11.894,25.389-14.705c4.473-1.337,7.539-5.451,7.539-10.12v-11.012 h21.123v11.012c0,4.669,3.065,8.783,7.539,10.12c9.409,2.81,18.189,7.896,25.389,14.705c3.393,3.209,8.491,3.807,12.538,1.473 l9.578-5.53l10.562,18.294l-9.54,5.508C251.869,267.464,249.839,272.178,250.921,276.722z"/> <path d="M189.289,249.154c-23.294,0-42.246,18.952-42.246,42.246s18.952,42.246,42.246,42.246 c23.294,0,42.246-18.952,42.246-42.246S212.584,249.154,189.289,249.154z M189.289,312.523c-11.647,0-21.123-9.476-21.123-21.123 c0-11.647,9.476-21.123,21.123-21.123c11.647,0,21.123,9.476,21.123,21.123C210.412,303.047,200.936,312.523,189.289,312.523z"/> <path d="M414.702,354.241h-6.298c-0.733-2.452-1.707-4.802-2.908-7.015l4.455-4.455c4.124-4.124,4.124-10.812,0-14.937 c-4.124-4.123-10.812-4.123-14.937,0l-4.455,4.455c-2.212-1.2-4.562-2.175-7.014-2.908v-6.298 c0-5.832-4.728-10.562-10.561-10.562s-10.562,4.729-10.562,10.562v6.298c-2.453,0.733-4.802,1.708-7.014,2.908l-4.455-4.455 c-4.124-4.123-10.812-4.123-14.937,0c-4.124,4.124-4.124,10.812,0,14.937l4.455,4.455c-1.2,2.213-2.175,4.561-2.908,7.015h-6.298 c-5.833,0-10.562,4.729-10.562,10.562c0,5.832,4.73,10.561,10.564,10.561h6.298c0.733,2.452,1.707,4.802,2.908,7.015 l-4.455,4.455c-4.124,4.124-4.124,10.812,0,14.937c2.063,2.062,4.765,3.093,7.468,3.093c2.703,0,5.406-1.032,7.468-3.093 l4.455-4.455c2.212,1.2,4.562,2.175,7.014,2.908v6.298c0,5.832,4.728,10.562,10.562,10.562s10.561-4.729,10.561-10.562v-6.298 c2.453-0.733,4.802-1.708,7.014-2.908l4.455,4.455c2.063,2.062,4.765,3.093,7.468,3.093s5.406-1.032,7.468-3.093 c4.124-4.124,4.124-10.812,0-14.937l-4.455-4.455c1.2-2.213,2.175-4.562,2.908-7.015h6.298c5.833,0,10.561-4.729,10.561-10.561 C425.264,358.97,420.535,354.241,414.702,354.241z M372.987,380.645c-8.735,0-15.842-7.107-15.842-15.842 s7.107-15.842,15.842-15.842c8.735,0,15.842,7.106,15.842,15.842C388.829,373.538,381.722,380.645,372.987,380.645z"/> <path d="M138.609,156.968h1.056c5.833,0,10.562-4.729,10.562-10.562c0-5.832-4.728-10.561-10.562-10.561h-1.056 c-5.833,0-10.561,4.729-10.561,10.561C128.048,152.239,132.776,156.968,138.609,156.968z"/> </g> </g> </g> </g>
<g id="SVGRepo_iconCarrier"> <g> <g> <g> <path d="M501.438,135.843h-8.449V99.257c0-5.832-4.728-10.561-10.562-10.561H212.17l-22.685-22.221 c-8.433-8.268-19.585-12.822-31.399-12.822H44.865C20.127,53.652,0,73.779,0,98.518v296.662 c0,34.831,28.338,63.168,63.168,63.168h385.653c34.837,0,63.179-28.336,63.179-63.168V146.403 C512,140.571,507.272,135.843,501.438,135.843z M471.866,109.818v26.025H260.301l-26.567-26.025H471.866z M448.821,437.225 H63.168c-23.184,0-42.045-18.861-42.045-42.045V98.518c0-13.092,10.651-23.742,23.742-23.742h113.219 c6.251,0,12.151,2.408,16.615,6.785l55.417,54.284h-40.829c-5.833,0-10.561,4.729-10.561,10.562 c0,5.832,4.728,10.561,10.561,10.561l301.589-0.002v238.214h0C490.877,418.363,472.011,437.225,448.821,437.225z"/> <path d="M290.083,266.22c0.726-2.706,0.345-5.588-1.055-8.014l-21.123-36.587c-1.4-2.426-3.707-4.196-6.413-4.921 c-2.707-0.727-5.589-0.346-8.014,1.055l-12.25,7.072c-6.183-4.824-13.022-8.786-20.255-11.73v-14.109 c0-5.832-4.728-10.561-10.562-10.561h-42.246c-5.833,0-10.561,4.729-10.561,10.561v14.109 c-7.234,2.943-14.073,6.905-20.255,11.73l-12.25-7.072c-2.426-1.4-5.307-1.781-8.014-1.055c-2.706,0.726-5.012,2.495-6.413,4.921 l-21.123,36.587c-1.4,2.426-1.781,5.308-1.055,8.014c0.726,2.707,2.495,5.013,4.922,6.413l12.208,7.048 c-0.549,3.894-0.826,7.812-0.826,11.719s0.277,7.826,0.826,11.72l-12.208,7.048c-2.426,1.4-4.196,3.707-4.922,6.413 c-0.726,2.706-0.345,5.588,1.055,8.014l21.123,36.587c1.4,2.426,3.707,4.196,6.413,4.921c2.707,0.726,5.589,0.345,8.014-1.055 l12.25-7.073c6.182,4.825,13.021,8.786,20.255,11.73v14.109c0,5.832,4.728,10.562,10.561,10.562h42.246 c5.833,0,10.562-4.729,10.562-10.562v-14.109c7.234-2.943,14.073-6.905,20.255-11.73l12.25,7.073 c2.426,1.401,5.308,1.783,8.014,1.055c2.706-0.726,5.013-2.495,6.413-4.921l21.123-36.587c1.4-2.426,1.781-5.308,1.055-8.014 c-0.726-2.707-2.495-5.012-4.921-6.413l-12.208-7.049c0.549-3.894,0.826-7.812,0.826-11.719c0-3.907-0.277-7.824-0.826-11.718 l12.208-7.049C287.588,271.233,289.358,268.926,290.083,266.22z M250.921,276.722c1.152,4.838,1.736,9.777,1.736,14.677 c0,4.903-0.584,9.84-1.736,14.678c-1.081,4.544,0.948,9.258,4.993,11.593l9.54,5.508l-10.562,18.294l-9.578-5.53 c-4.046-2.336-9.144-1.736-12.538,1.473c-7.199,6.808-15.979,11.893-25.389,14.704c-4.473,1.337-7.539,5.451-7.539,10.12v11.012 h-21.123v-11.012c0-4.669-3.065-8.783-7.539-10.12c-9.41-2.81-18.19-7.896-25.389-14.704c-3.393-3.21-8.494-3.81-12.538-1.473 l-9.578,5.53l-10.562-18.294l9.54-5.508c4.046-2.335,6.076-7.051,4.993-11.594c-1.152-4.837-1.736-9.776-1.736-14.677 c0-4.902,0.584-9.839,1.736-14.676c1.083-4.544-0.947-9.259-4.993-11.594l-9.54-5.508l10.562-18.294l9.578,5.53 c4.045,2.336,9.144,1.736,12.538-1.473c7.2-6.809,15.98-11.894,25.389-14.705c4.473-1.337,7.539-5.451,7.539-10.12v-11.012 h21.123v11.012c0,4.669,3.065,8.783,7.539,10.12c9.409,2.81,18.189,7.896,25.389,14.705c3.393,3.209,8.491,3.807,12.538,1.473 l9.578-5.53l10.562,18.294l-9.54,5.508C251.869,267.464,249.839,272.178,250.921,276.722z"/> <path d="M189.289,249.154c-23.294,0-42.246,18.952-42.246,42.246s18.952,42.246,42.246,42.246 c23.294,0,42.246-18.952,42.246-42.246S212.584,249.154,189.289,249.154z M189.289,312.523c-11.647,0-21.123-9.476-21.123-21.123 c0-11.647,9.476-21.123,21.123-21.123c11.647,0,21.123,9.476,21.123,21.123C210.412,303.047,200.936,312.523,189.289,312.523z"/> <path d="M414.702,354.241h-6.298c-0.733-2.452-1.707-4.802-2.908-7.015l4.455-4.455c4.124-4.124,4.124-10.812,0-14.937 c-4.124-4.123-10.812-4.123-14.937,0l-4.455,4.455c-2.212-1.2-4.562-2.175-7.014-2.908v-6.298 c0-5.832-4.728-10.562-10.561-10.562s-10.562,4.729-10.562,10.562v6.298c-2.453,0.733-4.802,1.708-7.014,2.908l-4.455-4.455 c-4.124-4.123-10.812-4.123-14.937,0c-4.124,4.124-4.124,10.812,0,14.937l4.455,4.455c-1.2,2.213-2.175,4.561-2.908,7.015h-6.298 c-5.833,0-10.562,4.729-10.562,10.562c0,5.832,4.73,10.561,10.564,10.561h6.298c0.733,2.452,1.707,4.802,2.908,7.015 l-4.455,4.455c-4.124,4.124-4.124,10.812,0,14.937c2.063,2.062,4.765,3.093,7.468,3.093c2.703,0,5.406-1.032,7.468-3.093 l4.455-4.455c2.212,1.2,4.562,2.175,7.014,2.908v6.298c0,5.832,4.728,10.562,10.562,10.562s10.561-4.729,10.561-10.562v-6.298 c2.453-0.733,4.802-1.708,7.014-2.908l4.455,4.455c2.063,2.062,4.765,3.093,7.468,3.093s5.406-1.032,7.468-3.093 c4.124-4.124,4.124-10.812,0-14.937l-4.455-4.455c1.2-2.213,2.175-4.562,2.908-7.015h6.298c5.833,0,10.561-4.729,10.561-10.561 C425.264,358.97,420.535,354.241,414.702,354.241z M372.987,380.645c-8.735,0-15.842-7.107-15.842-15.842 s7.107-15.842,15.842-15.842c8.735,0,15.842,7.106,15.842,15.842C388.829,373.538,381.722,380.645,372.987,380.645z"/> <path d="M138.609,156.968h1.056c5.833,0,10.562-4.729,10.562-10.562c0-5.832-4.728-10.561-10.562-10.561h-1.056 c-5.833,0-10.561,4.729-10.561,10.561C128.048,152.239,132.776,156.968,138.609,156.968z"/> </g> </g> </g> </g>
</svg>