<!DOCTYPE svg PUBLIC "-//W3C//DTD SVG 1.1//EN" "http://www.w3.org/Graphics/SVG/1.1/DTD/svg11.dtd">
<!-- Uploaded to: SVG Repo, www.svgrepo.com, Transformed by: SVG Repo Mixer Tools -->
<svg width="256px" height="256px" viewBox="-51.2 -51.2 614.40 614.40" xmlns="http://www.w3.org/2000/svg" fill="#000000" stroke="#000000" stroke-width="0.00512" transform="rotate(180)matrix(-1, 0, 0, -1, 0, 0)">
<g id="SVGRepo_bgCarrier" stroke-width="0">
<path transform="translate(-51.2, -51.2), scale(19.2)" d="M16,31.195159453366486C19.000312175615583,30.585441120383702,20.65554812323024,27.546477931483004,22.804871577173344,25.366102209949553C24.549118957202076,23.59665488326363,26.18005610852115,21.880803241918787,27.34502915575984,19.686223427042954C28.754459156936353,17.03113484933386,31.12482793888867,14.24608982188802,30.231430313959393,11.375927985428541C29.33820465689546,8.506318619213484,25.714061873577943,7.723722485671924,23.139049882436957,6.173940812471921C20.82868994156618,4.783441076091882,18.670949076990613,3.1812004974380415,16,2.8106824798243384C13.016148718265175,2.396758204260032,9.887070191982481,2.495996490766949,7.260608765751172,3.9712599092556555C4.443293797806415,5.553724311382208,1.9862480789439605,8.05233161309345,1.123914284336685,11.166466748131995C0.27731032475733386,14.223796928714206,1.7489086246978935,17.2948300169483,2.7363613460872447,20.309617442372364C3.721147369595345,23.31626318458907,4.391985562369775,26.60379909758301,6.837615129085874,28.610940884724805C9.352097028459543,30.674590164211306,12.812270961494722,31.842964322191335,16,31.195159453366486" fill="#7ed0ec" strokewidth="0"/>
</g>
<g id="SVGRepo_tracerCarrier" stroke-linecap="round" stroke-linejoin="round" stroke="#fafafa" stroke-width="19.456">
<path fill="#000000" d="M463 20.3L315.6 75.65 368.5 109C274 228 137.3 301.3 21.8 329.2l32.72 59.6C184.3 346.5 321.7 270.2 410.2 135.4l40.3 25.4L463 20.3zm7.7 116.7l-4.8 54.8-51.3-32.4c-1.8 2.7-3.7 5.3-5.6 8V487h78V137h-16.3zM320.1 265c-12.7 11-25.8 21.4-39.1 31.2V487h78V265h-38.9zm-123.7 84c-14.4 7.6-28.8 14.6-43.4 21.2V487h78V349h-34.6zM25 393v94h78v-94h-5.68c-14.82 5.5-29.63 10.6-44.35 15.3l-7.06 2.2-9.6-17.5H25z"/>
</g>
<g id="SVGRepo_iconCarrier">
<path fill="#000000" d="M463 20.3L315.6 75.65 368.5 109C274 228 137.3 301.3 21.8 329.2l32.72 59.6C184.3 346.5 321.7 270.2 410.2 135.4l40.3 25.4L463 20.3zm7.7 116.7l-4.8 54.8-51.3-32.4c-1.8 2.7-3.7 5.3-5.6 8V487h78V137h-16.3zM320.1 265c-12.7 11-25.8 21.4-39.1 31.2V487h78V265h-38.9zm-123.7 84c-14.4 7.6-28.8 14.6-43.4 21.2V487h78V349h-34.6zM25 393v94h78v-94h-5.68c-14.82 5.5-29.63 10.6-44.35 15.3l-7.06 2.2-9.6-17.5H25z"/>
</g>
</svg>