<?xml version="1.0" standalone="no"?>
<!DOCTYPE svg PUBLIC "-//W3C//DTD SVG 20010904//EN"
 "http://www.w3.org/TR/2001/REC-SVG-20010904/DTD/svg10.dtd">
<svg version="1.0" xmlns="http://www.w3.org/2000/svg"
 width="64.000000pt" height="64.000000pt" viewBox="0 0 64.000000 64.000000"
 preserveAspectRatio="xMidYMid meet">

<g transform="translate(0.000000,64.000000) scale(0.100000,-0.100000)"
fill="#000000" stroke="none">
<path d="M255 601 c-84 -22 -154 -80 -196 -161 -34 -66 -33 -176 3 -245 31
-60 77 -105 138 -136 66 -34 176 -33 245 3 213 111 214 406 3 514 -52 26 -144
38 -193 25z m176 -44 c162 -79 198 -299 69 -424 -53 -52 -96 -68 -180 -68 -86
0 -128 16 -183 72 -47 47 -70 96 -75 164 -9 118 58 221 172 266 42 17 153 11
197 -10z"/>
</g>
</svg>
